<svg width="54" height="54" viewBox="0 0 54 54" xmlns="http://www.w3.org/2000/svg" fill="none">
  <!-- Black Background -->
  <rect width="54" height="54" fill="#000000" />

  <!-- MongoDB Leaf (Pointing Upward) -->
  <path
    d="M27 54C27 54 28.4 38 26 34C23.6 30 17 25 16.4 18C15.8 11 24.4 7 27 0C29.6 7 38.2 11 37.6 18C37 25 30.4 30 28 34C25.6 38 27 54 27 54Z"
    fill="#47A248"
  />

  <!-- Leaf Vein (Shortened Further) -->
  <path
    d="M27 42C27 42 28 38 26 34C24.4 30 21 27 19 24C18 22 19 17 27 0"
    stroke="#3E7D32"
    stroke-width="1"
  />
</svg>








