<svg width="64" height="64" viewBox="0 0 64 64" xmlns="http://www.w3.org/2000/svg" fill="none">
  <defs>
    <clipPath id="clipNodeJS">
      <rect width="64" height="64" fill="white" />
    </clipPath>
  </defs>
  <g clip-path="url(#clipNodeJS)">
    <path fill="#83CD29" d="M32 0L6.4 16v32L32 64l25.6-16V16L32 0z" />
    <path fill="#FFFFFF" d="M28.8 46.1c-3.7 0-6.8-1.2-9-3.2-.4-.4-.5-1-.2-1.6l2.3-4.7c.2-.3.6-.6 1-.6s.8.2 1.1.5c1.5 1.2 3.2 1.9 5 1.9 1.7 0 2.7-.6 2.7-1.7 0-.8-.6-1.4-2.7-2.1l-.6-.2c-3-.9-6.2-2-6.2-6.5 0-3 2.3-5.3 5.9-5.3 2.7 0 4.8.9 6.3 2 .4.3.6.7.3 1.3l-2 5c-.2.5-.6.7-1.1.7-.3 0-.6-.1-.9-.3-1.1-.8-2.3-1.3-3.6-1.3-1.4 0-2.1.6-2.1 1.5 0 .8.8 1.3 2.6 1.8l.6.2c3.6 1.1 6.3 2.5 6.3 6.7 0 3.7-2.9 5.8-6.7 5.8z" />
    <path fill="#FFFFFF" d="M40.6 45.8c-1 0-1.8-.8-1.8-1.8v-8.2c0-1 .8-1.8 1.8-1.8h2.7c.7 0 1.3.4 1.6.9l4.1 5.5v-4.6c0-1 .8-1.8 1.8-1.8h2.7c1 0 1.8.8 1.8 1.8v12c0 1-.8 1.8-1.8 1.8h-2.7c-.7 0-1.3-.4-1.6-.9l-4.1-5.5v4.6c0 1-.8 1.8-1.8 1.8h-2.7z" />
  </g>
</svg>


